ffmpeg started on 2025-05-12 at 14:15:00
Report written to "D:\Convert\FFMetrics\reports\ssim_report-6.txt"
Log level: 32
Command line:
ffmpeg -hide_banner -nostdin -i "G:\\\xc0\xed\xe8\xec\xe5\\\xce\xed\xe3\xee\xe8\xed\xe3\xe8\\!_35_\xcb\xe5\xf2\xee_2024\\DreamCast\\\xc2\xe8\xf2\xf3\xe1\xe5\xf0 - \xdf \xf1\xf2\xe0\xeb\xe0 \xef\xee\xef\xf3\xeb\xff\xf0\xed\xee\xe9 \xef\xee\xf1\xeb\xe5 \xf2\xee\xe3\xee, \xea\xe0\xea \xe7\xe0\xe1\xfb\xeb\xe0 \xe2\xfb\xea\xeb\xfe\xf7\xe8\xf2\xfc \xf1\xf2\xf0\xe8\xec\\[DC] Vden - 06_Telegram_HEVC.mkv" -i "G:\\\xc0\xed\xe8\xec\xe5\\\xce\xed\xe3\xee\xe8\xed\xe3\xe8\\!_35_\xcb\xe5\xf2\xee_2024\\DreamCast\\\xc2\xe8\xf2\xf3\xe1\xe5\xf0 - \xdf \xf1\xf2\xe0\xeb\xe0 \xef\xee\xef\xf3\xeb\xff\xf0\xed\xee\xe9 \xef\xee\xf1\xeb\xe5 \xf2\xee\xe3\xee, \xea\xe0\xea \xe7\xe0\xe1\xfb\xeb\xe0 \xe2\xfb\xea\xeb\xfe\xf7\xe8\xf2\xfc \xf1\xf2\xf0\xe8\xec\\[DC] Vden - 06_Telegram.mp4" -lavfi "[0:v]settb=AVTB,setpts=PTS-STARTPTS,format=pix_fmts=yuv420p10,fps=24000/1001,scale=1920:1080:flags=bicubic[main];[1:v]settb=AVTB,setpts=PTS-STARTPTS,format=pix_fmts=yuv420p,fps=24000/1001,scale=1920:1080:flags=bicubic[ref];[main][ref]ssim=eof_action=endall:stats_file='D\\:/Convert/FFMetrics/logs/ssim_logfile-6.txt'" -f null -
Input #0, matroska,webm, from 'G:\Аниме\Онгоинги\!_35_Лето_2024\DreamCast\Витубер - Я стала популярной после того, как забыла выключить стрим\[DC] Vden - 06_Telegram_HEVC.mkv':
  Metadata:
    COMPATIBLE_BRANDS: isomiso2avc1mp41
    MAJOR_BRAND     : isom
    MINOR_VERSION   : 512
    ENCODER         : Lavf61.7.100
  Duration: 00:23:46.77, start: -0.021000, bitrate: 1487 kb/s
  Stream #0:0: Video: hevc (Main 10), yuv420p10le(tv, bt709, progressive), 1920x1080 [SAR 1:1 DAR 16:9], 23.98 fps, 23.98 tbr, 1k tbn (default)
      Metadata:
        HANDLER_NAME    : VideoHandler
        VENDOR_ID       : [0][0][0][0]
        ENCODER         : Lavc61.19.100 libx265
        BPS             : 1291219
        DURATION        : 00:23:46.591708333
        NUMBER_OF_FRAMES: 34204
        NUMBER_OF_BYTES : 230255332
        _STATISTICS_WRITING_APP: mkvpropedit v66.0.0 ('Josie') 64-bit
        _STATISTICS_WRITING_DATE_UTC: 2025-05-06 17:57:16
        _STATISTICS_TAGS: BPS DURATION NUMBER_OF_FRAMES NUMBER_OF_BYTES
  Stream #0:1: Audio: aac (LC), 48000 Hz, stereo, fltp (default)
      Metadata:
        HANDLER_NAME    : SoundHandler
        VENDOR_ID       : [0][0][0][0]
        ENCODER         : Lavc61.19.100 aac
        BPS             : 192438
        DURATION        : 00:23:46.773000000
        NUMBER_OF_FRAMES: 66881
        NUMBER_OF_BYTES : 34320738
        _STATISTICS_WRITING_APP: mkvpropedit v66.0.0 ('Josie') 64-bit
        _STATISTICS_WRITING_DATE_UTC: 2025-05-06 17:57:16
        _STATISTICS_TAGS: BPS DURATION NUMBER_OF_FRAMES NUMBER_OF_BYTES
Input #1, mov,mp4,m4a,3gp,3g2,mj2, from 'G:\Аниме\Онгоинги\!_35_Лето_2024\DreamCast\Витубер - Я стала популярной после того, как забыла выключить стрим\[DC] Vden - 06_Telegram.mp4':
  Metadata:
    major_brand     : isom
    minor_version   : 512
    compatible_brands: isomiso2avc1mp41
    encoder         : Lavf61.1.100
  Duration: 00:23:46.72, start: 0.000000, bitrate: 3877 kb/s
  Stream #1:0[0x1](und): Video: h264 (High) (avc1 / 0x31637661), yuv420p(tv, bt709, progressive), 1920x1080 [SAR 1:1 DAR 16:9], 3729 kb/s, 23.98 fps, 23.98 tbr, 24k tbn (default)
      Metadata:
        handler_name    : VideoHandler
        vendor_id       : [0][0][0][0]
        encoder         : Lavc61.3.100 h264_qsv
  Stream #1:1[0x2](und): Audio: aac (HE-AACv2) (mp4a / 0x6134706D), 48000 Hz, stereo, fltp, 144 kb/s (default)
      Metadata:
        handler_name    : SoundHandler
        vendor_id       : [0][0][0][0]
Stream mapping:
  Stream #0:0 (hevc) -> settb:default
  Stream #1:0 (h264) -> settb:default
  ssim:default -> Stream #0:0 (wrapped_avframe)
  Stream #0:1 -> #0:1 (aac (native) -> pcm_s16le (native))
Output #0, null, to 'pipe:':
  Metadata:
    COMPATIBLE_BRANDS: isomiso2avc1mp41
    MAJOR_BRAND     : isom
    MINOR_VERSION   : 512
    encoder         : Lavf61.7.100
  Stream #0:0: Video: wrapped_avframe, yuv420p10le(tv, bt709, progressive), 1920x1080 [SAR 1:1 DAR 16:9], q=2-31, 200 kb/s, 23.98 fps, 23.98 tbn
      Metadata:
        encoder         : Lavc61.19.100 wrapped_avframe
  Stream #0:1: Audio: pcm_s16le, 48000 Hz, stereo, s16, 1536 kb/s (default)
      Metadata:
        HANDLER_NAME    : SoundHandler
        VENDOR_ID       : [0][0][0][0]
        _STATISTICS_TAGS: BPS DURATION NUMBER_OF_FRAMES NUMBER_OF_BYTES
        BPS             : 192438
        DURATION        : 00:23:46.773000000
        NUMBER_OF_FRAMES: 66881
        NUMBER_OF_BYTES : 34320738
        _STATISTICS_WRITING_APP: mkvpropedit v66.0.0 ('Josie') 64-bit
        _STATISTICS_WRITING_DATE_UTC: 2025-05-06 17:57:16
        encoder         : Lavc61.19.100 pcm_s16le
frame=  155 fps=0.0 q=-0.0 size=N/A time=00:00:06.46 bitrate=N/A speed=12.5x    frame=  350 fps=342 q=-0.0 size=N/A time=00:00:14.59 bitrate=N/A speed=14.3x    frame=  543 fps=350 q=-0.0 size=N/A time=00:00:22.64 bitrate=N/A speed=14.6x    frame=  763 fps=370 q=-0.0 size=N/A time=00:00:31.82 bitrate=N/A speed=15.4x    frame= 1010 fps=391 q=-0.0 size=N/A time=00:00:42.12 bitrate=N/A speed=16.3x    frame= 1225 fps=396 q=-0.0 size=N/A time=00:00:51.09 bitrate=N/A speed=16.5x    frame= 1424 fps=394 q=-0.0 size=N/A time=00:00:59.39 bitrate=N/A speed=16.4x    frame= 1617 fps=392 q=-0.0 size=N/A time=00:01:07.44 bitrate=N/A speed=16.4x    frame= 1833 fps=394 q=-0.0 size=N/A time=00:01:16.45 bitrate=N/A speed=16.5x    frame= 2023 fps=393 q=-0.0 size=N/A time=00:01:24.37 bitrate=N/A speed=16.4x    frame= 2240 fps=394 q=-0.0 size=N/A time=00:01:33.42 bitrate=N/A speed=16.5x    frame= 2413 fps=390 q=-0.0 size=N/A time=00:01:40.64 bitrate=N/A speed=16.3x    frame= 2580 fps=385 q=-0.0 size=N/A time=00:01:47.60 bitrate=N/A speed=  16x    frame= 2752 fps=381 q=-0.0 size=N/A time=00:01:54.78 bitrate=N/A speed=15.9x    frame= 2916 fps=377 q=-0.0 size=N/A time=00:02:01.62 bitrate=N/A speed=15.7x    frame= 3070 fps=372 q=-0.0 size=N/A time=00:02:08.04 bitrate=N/A speed=15.5x    frame= 3265 fps=372 q=-0.0 size=N/A time=00:02:16.17 bitrate=N/A speed=15.5x    frame= 3488 fps=376 q=-0.0 size=N/A time=00:02:25.47 bitrate=N/A speed=15.7x    frame= 3731 fps=381 q=-0.0 size=N/A time=00:02:35.61 bitrate=N/A speed=15.9x    frame= 3970 fps=385 q=-0.0 size=N/A time=00:02:45.58 bitrate=N/A speed=16.1x    frame= 4229 fps=390 q=-0.0 size=N/A time=00:02:56.38 bitrate=N/A speed=16.3x    frame= 4487 fps=396 q=-0.0 size=N/A time=00:03:07.14 bitrate=N/A speed=16.5x    frame= 4659 fps=393 q=-0.0 size=N/A time=00:03:14.31 bitrate=N/A speed=16.4x    frame= 4892 fps=395 q=-0.0 size=N/A time=00:03:24.03 bitrate=N/A speed=16.5x    frame= 5121 fps=397 q=-0.0 size=N/A time=00:03:33.58 bitrate=N/A speed=16.6x    frame= 5350 fps=399 q=-0.0 size=N/A time=00:03:43.13 bitrate=N/A speed=16.6x    frame= 5590 fps=401 q=-0.0 size=N/A time=00:03:53.14 bitrate=N/A speed=16.7x    frame= 5845 fps=405 q=-0.0 size=N/A time=00:04:03.78 bitrate=N/A speed=16.9x    frame= 6106 fps=408 q=-0.0 size=N/A time=00:04:14.67 bitrate=N/A speed=  17x    frame= 6364 fps=411 q=-0.0 size=N/A time=00:04:25.43 bitrate=N/A speed=17.2x    frame= 6632 fps=415 q=-0.0 size=N/A time=00:04:36.60 bitrate=N/A speed=17.3x    frame= 6882 fps=417 q=-0.0 size=N/A time=00:04:47.03 bitrate=N/A speed=17.4x    frame= 7153 fps=420 q=-0.0 size=N/A time=00:04:58.33 bitrate=N/A speed=17.5x    frame= 7413 fps=423 q=-0.0 size=N/A time=00:05:09.18 bitrate=N/A speed=17.6x    frame= 7658 fps=424 q=-0.0 size=N/A time=00:05:19.40 bitrate=N/A speed=17.7x    frame= 7884 fps=425 q=-0.0 size=N/A time=00:05:28.82 bitrate=N/A speed=17.7x    frame= 8079 fps=423 q=-0.0 size=N/A time=00:05:36.96 bitrate=N/A speed=17.7x    frame= 8333 fps=425 q=-0.0 size=N/A time=00:05:47.55 bitrate=N/A speed=17.7x    frame= 8592 fps=427 q=-0.0 size=N/A time=00:05:58.35 bitrate=N/A speed=17.8x    frame= 8842 fps=429 q=-0.0 size=N/A time=00:06:08.78 bitrate=N/A speed=17.9x    frame= 9040 fps=428 q=-0.0 size=N/A time=00:06:17.04 bitrate=N/A speed=17.8x    frame= 9305 fps=430 q=-0.0 size=N/A time=00:06:28.09 bitrate=N/A speed=17.9x    frame= 9558 fps=431 q=-0.0 size=N/A time=00:06:38.64 bitrate=N/A speed=  18x    frame= 9801 fps=432 q=-0.0 size=N/A time=00:06:48.78 bitrate=N/A speed=  18x    frame=10025 fps=432 q=-0.0 size=N/A time=00:06:58.12 bitrate=N/A speed=  18x    frame=10278 fps=433 q=-0.0 size=N/A time=00:07:08.67 bitrate=N/A speed=18.1x    frame=10531 fps=435 q=-0.0 size=N/A time=00:07:19.23 bitrate=N/A speed=18.1x    frame=10786 fps=436 q=-0.0 size=N/A time=00:07:29.86 bitrate=N/A speed=18.2x    frame=11024 fps=436 q=-0.0 size=N/A time=00:07:39.79 bitrate=N/A speed=18.2x    frame=11277 fps=437 q=-0.0 size=N/A time=00:07:50.34 bitrate=N/A speed=18.2x    frame=11540 fps=439 q=-0.0 size=N/A time=00:08:01.31 bitrate=N/A speed=18.3x    frame=11761 fps=439 q=-0.0 size=N/A time=00:08:10.53 bitrate=N/A speed=18.3x    frame=11962 fps=438 q=-0.0 size=N/A time=00:08:18.91 bitrate=N/A speed=18.3x    frame=12228 fps=439 q=-0.0 size=N/A time=00:08:30.00 bitrate=N/A speed=18.3x    frame=12476 fps=440 q=-0.0 size=N/A time=00:08:40.35 bitrate=N/A speed=18.4x    frame=12736 fps=441 q=-0.0 size=N/A time=00:08:51.19 bitrate=N/A speed=18.4x    frame=12968 fps=441 q=-0.0 size=N/A time=00:09:00.87 bitrate=N/A speed=18.4x    frame=13218 fps=442 q=-0.0 size=N/A time=00:09:11.30 bitrate=N/A speed=18.4x    frame=13434 fps=441 q=-0.0 size=N/A time=00:09:20.30 bitrate=N/A speed=18.4x    frame=13698 fps=442 q=-0.0 size=N/A time=00:09:31.32 bitrate=N/A speed=18.5x    frame=13954 fps=443 q=-0.0 size=N/A time=00:09:41.99 bitrate=N/A speed=18.5x    frame=14144 fps=442 q=-0.0 size=N/A time=00:09:49.92 bitrate=N/A speed=18.4x    frame=14388 fps=443 q=-0.0 size=N/A time=00:10:00.09 bitrate=N/A speed=18.5x    frame=14636 fps=443 q=-0.0 size=N/A time=00:10:10.44 bitrate=N/A speed=18.5x    frame=14873 fps=444 q=-0.0 size=N/A time=00:10:20.32 bitrate=N/A speed=18.5x    frame=15024 fps=441 q=-0.0 size=N/A time=00:10:26.62 bitrate=N/A speed=18.4x    frame=15268 fps=442 q=-0.0 size=N/A time=00:10:36.80 bitrate=N/A speed=18.4x    frame=15513 fps=442 q=-0.0 size=N/A time=00:10:47.02 bitrate=N/A speed=18.4x    frame=15756 fps=443 q=-0.0 size=N/A time=00:10:57.15 bitrate=N/A speed=18.5x    frame=16003 fps=443 q=-0.0 size=N/A time=00:11:07.45 bitrate=N/A speed=18.5x    frame=16245 fps=444 q=-0.0 size=N/A time=00:11:17.55 bitrate=N/A speed=18.5x    frame=16482 fps=444 q=-0.0 size=N/A time=00:11:27.43 bitrate=N/A speed=18.5x    frame=16712 fps=444 q=-0.0 size=N/A time=00:11:37.02 bitrate=N/A speed=18.5x    frame=16963 fps=444 q=-0.0 size=N/A time=00:11:47.49 bitrate=N/A speed=18.5x    frame=17198 fps=445 q=-0.0 size=N/A time=00:11:57.29 bitrate=N/A speed=18.5x    frame=17467 fps=446 q=-0.0 size=N/A time=00:12:08.51 bitrate=N/A speed=18.6x    frame=17719 fps=446 q=-0.0 size=N/A time=00:12:19.02 bitrate=N/A speed=18.6x    frame=17971 fps=447 q=-0.0 size=N/A time=00:12:29.54 bitrate=N/A speed=18.6x    frame=18205 fps=447 q=-0.0 size=N/A time=00:12:39.30 bitrate=N/A speed=18.6x    frame=18453 fps=447 q=-0.0 size=N/A time=00:12:49.64 bitrate=N/A speed=18.7x    frame=18681 fps=447 q=-0.0 size=N/A time=00:12:59.15 bitrate=N/A speed=18.7x    frame=18937 fps=448 q=-0.0 size=N/A time=00:13:09.83 bitrate=N/A speed=18.7x    frame=19169 fps=448 q=-0.0 size=N/A time=00:13:19.50 bitrate=N/A speed=18.7x    frame=19395 fps=448 q=-0.0 size=N/A time=00:13:28.93 bitrate=N/A speed=18.7x    frame=19655 fps=448 q=-0.0 size=N/A time=00:13:39.77 bitrate=N/A speed=18.7x    frame=19880 fps=448 q=-0.0 size=N/A time=00:13:49.16 bitrate=N/A speed=18.7x    frame=20101 fps=448 q=-0.0 size=N/A time=00:13:58.37 bitrate=N/A speed=18.7x    frame=20318 fps=448 q=-0.0 size=N/A time=00:14:07.42 bitrate=N/A speed=18.7x    frame=20542 fps=448 q=-0.0 size=N/A time=00:14:16.77 bitrate=N/A speed=18.7x    frame=20759 fps=447 q=-0.0 size=N/A time=00:14:25.82 bitrate=N/A speed=18.6x    frame=21005 fps=448 q=-0.0 size=N/A time=00:14:36.08 bitrate=N/A speed=18.7x    frame=21211 fps=447 q=-0.0 size=N/A time=00:14:44.67 bitrate=N/A speed=18.6x    frame=21425 fps=447 q=-0.0 size=N/A time=00:14:53.60 bitrate=N/A speed=18.6x    frame=21670 fps=447 q=-0.0 size=N/A time=00:15:03.81 bitrate=N/A speed=18.6x    frame=21901 fps=447 q=-0.0 size=N/A time=00:15:13.45 bitrate=N/A speed=18.6x    frame=22128 fps=447 q=-0.0 size=N/A time=00:15:22.92 bitrate=N/A speed=18.6x    frame=22352 fps=447 q=-0.0 size=N/A time=00:15:32.26 bitrate=N/A speed=18.6x    frame=22558 fps=446 q=-0.0 size=N/A time=00:15:40.85 bitrate=N/A speed=18.6x    frame=22741 fps=445 q=-0.0 size=N/A time=00:15:48.48 bitrate=N/A speed=18.6x    frame=22952 fps=445 q=-0.0 size=N/A time=00:15:57.28 bitrate=N/A speed=18.6x    frame=23195 fps=445 q=-0.0 size=N/A time=00:16:07.42 bitrate=N/A speed=18.6x    frame=23431 fps=445 q=-0.0 size=N/A time=00:16:17.26 bitrate=N/A speed=18.6x    frame=23638 fps=445 q=-0.0 size=N/A time=00:16:25.90 bitrate=N/A speed=18.6x    frame=23815 fps=444 q=-0.0 size=N/A time=00:16:33.28 bitrate=N/A speed=18.5x    frame=24033 fps=444 q=-0.0 size=N/A time=00:16:42.37 bitrate=N/A speed=18.5x    frame=24213 fps=443 q=-0.0 size=N/A time=00:16:49.88 bitrate=N/A speed=18.5x    frame=24442 fps=443 q=-0.0 size=N/A time=00:16:59.43 bitrate=N/A speed=18.5x    frame=24660 fps=442 q=-0.0 size=N/A time=00:17:08.52 bitrate=N/A speed=18.5x    frame=24914 fps=443 q=-0.0 size=N/A time=00:17:19.12 bitrate=N/A speed=18.5x    frame=25095 fps=442 q=-0.0 size=N/A time=00:17:26.67 bitrate=N/A speed=18.4x    frame=25367 fps=443 q=-0.0 size=N/A time=00:17:38.01 bitrate=N/A speed=18.5x    frame=25633 fps=444 q=-0.0 size=N/A time=00:17:49.10 bitrate=N/A speed=18.5x    frame=25919 fps=444 q=-0.0 size=N/A time=00:18:01.03 bitrate=N/A speed=18.5x    frame=26128 fps=444 q=-0.0 size=N/A time=00:18:09.75 bitrate=N/A speed=18.5x    frame=26370 fps=444 q=-0.0 size=N/A time=00:18:19.84 bitrate=N/A speed=18.5x    frame=26602 fps=444 q=-0.0 size=N/A time=00:18:29.52 bitrate=N/A speed=18.5x    frame=26809 fps=444 q=-0.0 size=N/A time=00:18:38.15 bitrate=N/A speed=18.5x    frame=27014 fps=444 q=-0.0 size=N/A time=00:18:46.70 bitrate=N/A speed=18.5x    frame=27225 fps=443 q=-0.0 size=N/A time=00:18:55.50 bitrate=N/A speed=18.5x    frame=27496 fps=444 q=-0.0 size=N/A time=00:19:06.81 bitrate=N/A speed=18.5x    frame=27722 fps=444 q=-0.0 size=N/A time=00:19:16.23 bitrate=N/A speed=18.5x    frame=27951 fps=444 q=-0.0 size=N/A time=00:19:25.78 bitrate=N/A speed=18.5x    frame=28198 fps=444 q=-0.0 size=N/A time=00:19:36.09 bitrate=N/A speed=18.5x    frame=28431 fps=444 q=-0.0 size=N/A time=00:19:45.80 bitrate=N/A speed=18.5x    frame=28637 fps=444 q=-0.0 size=N/A time=00:19:54.40 bitrate=N/A speed=18.5x    frame=28822 fps=443 q=-0.0 size=N/A time=00:20:02.11 bitrate=N/A speed=18.5x    frame=29068 fps=444 q=-0.0 size=N/A time=00:20:12.37 bitrate=N/A speed=18.5x    frame=29286 fps=443 q=-0.0 size=N/A time=00:20:21.47 bitrate=N/A speed=18.5x    frame=29522 fps=444 q=-0.0 size=N/A time=00:20:31.31 bitrate=N/A speed=18.5x    frame=29759 fps=444 q=-0.0 size=N/A time=00:20:41.19 bitrate=N/A speed=18.5x    frame=29984 fps=444 q=-0.0 size=N/A time=00:20:50.58 bitrate=N/A speed=18.5x    frame=30230 fps=444 q=-0.0 size=N/A time=00:21:00.84 bitrate=N/A speed=18.5x    frame=30461 fps=444 q=-0.0 size=N/A time=00:21:10.47 bitrate=N/A speed=18.5x    frame=30646 fps=443 q=-0.0 size=N/A time=00:21:18.19 bitrate=N/A speed=18.5x    frame=30808 fps=442 q=-0.0 size=N/A time=00:21:24.95 bitrate=N/A speed=18.4x    frame=31048 fps=442 q=-0.0 size=N/A time=00:21:34.96 bitrate=N/A speed=18.5x    frame=31292 fps=443 q=-0.0 size=N/A time=00:21:45.13 bitrate=N/A speed=18.5x    frame=31528 fps=443 q=-0.0 size=N/A time=00:21:54.98 bitrate=N/A speed=18.5x    frame=31795 fps=443 q=-0.0 size=N/A time=00:22:06.11 bitrate=N/A speed=18.5x    frame=32005 fps=443 q=-0.0 size=N/A time=00:22:14.87 bitrate=N/A speed=18.5x    frame=32230 fps=443 q=-0.0 size=N/A time=00:22:24.25 bitrate=N/A speed=18.5x    frame=32441 fps=443 q=-0.0 size=N/A time=00:22:33.06 bitrate=N/A speed=18.5x    frame=32655 fps=443 q=-0.0 size=N/A time=00:22:41.98 bitrate=N/A speed=18.5x    frame=32874 fps=442 q=-0.0 size=N/A time=00:22:51.11 bitrate=N/A speed=18.5x    frame=33085 fps=442 q=-0.0 size=N/A time=00:22:59.92 bitrate=N/A speed=18.4x    frame=33299 fps=442 q=-0.0 size=N/A time=00:23:08.84 bitrate=N/A speed=18.4x    frame=33505 fps=442 q=-0.0 size=N/A time=00:23:17.43 bitrate=N/A speed=18.4x    frame=33717 fps=442 q=-0.0 size=N/A time=00:23:26.27 bitrate=N/A speed=18.4x    frame=33929 fps=441 q=-0.0 size=N/A time=00:23:35.12 bitrate=N/A speed=18.4x    frame=34146 fps=441 q=-0.0 size=N/A time=00:23:44.17 bitrate=N/A speed=18.4x    [Parsed_ssim_10 @ 0000015eb5517980] SSIM Y:0.993763 (22.050451) U:0.992277 (21.121879) V:0.992108 (21.027954) All:0.993240 (21.700256)
[out#0/null @ 0000015eb2b84e00] video:14697KiB audio:267524KiB subtitle:0KiB other streams:0KiB global headers:0KiB muxing overhead: unknown
frame=34204 fps=441 q=-0.0 Lsize=N/A time=00:23:46.59 bitrate=N/A speed=18.4x    
